# xmcd CD database file
#
# Track frame offsets:
#	150
#	25750
#	38725
#	50537
#	67787
#	82637
#	96625
#	109037
#	125312
#	142300
#	155275
#	168625
#	178112
#	191762
#	207962
#	224012
#	236950
#	260687
#	285587
#	297175
#
# Disc length: 4284 seconds
#
# Revision: 0
# Processed by: cddbd v1.5PL3 Copyright (c) Steve Scherf et al.
# Submitted via: CDex 1.50
#
DISCID=3010ba14
DTITLE=Howlin' Wolf and Jimmy Witherspoon - Blues
DYEAR=1997
DGENRE=Blues
TTITLE0=Little red rooster
TTITLE1=Worried about you
TTITLE2=I ain't superstitious
TTITLE3=Goin' down slow
TTITLE4=Commit a crime
TTITLE5=I walked from Dallas
TTITLE6=My mind is ramblin'
TTITLE7=Rocking daddy
TTITLE8=Sittin' on top of the world
TTITLE9=What a woman
TTITLE10=Poor boy
TTITLE11=Built for comfort
TTITLE12=Kansas city
TTITLE13=Ain't nobody's business
TTITLE14=Gee baby ain't I been good to you
TTITLE15=Nobody knows you
TTITLE16=Goin' to Chicago
TTITLE17=See see rider
TTITLE18=Trouble in mind
TTITLE19=Roll 'em Pete
EXTD=YEAR: 1997
EXTT0=
EXTT1=
EXTT2=
EXTT3=
EXTT4=
EXTT5=
EXTT6=
EXTT7=
EXTT8=
EXTT9=
EXTT10=
EXTT11=
EXTT12=
EXTT13=
EXTT14=
EXTT15=
EXTT16=
EXTT17=
EXTT18=
EXTT19=
PLAYORDER=
